<?xml version="1.0" encoding="UTF-8" standalone="no"?>
<!DOCTYPE svg PUBLIC "-//W3C//DTD SVG 1.1//EN"
 "http://www.w3.org/Graphics/SVG/1.1/DTD/svg11.dtd">
<!-- Generated by graphviz version 2.26.3 (20100126.1600)
 -->
<!-- Title: G Pages: 1 -->
<svg width="331pt" height="365pt"
 viewBox="0.00 0.00 330.94 365.03" xmlns="http://www.w3.org/2000/svg" xmlns:xlink="http://www.w3.org/1999/xlink">
<g id="graph1" class="graph" transform="scale(1 1) rotate(0) translate(4 361.028)">
<title>G</title>
<polygon fill="white" stroke="white" points="-4,5 -4,-361.028 327.938,-361.028 327.938,5 -4,5"/>
<!-- 1 -->
<g id="node1" class="node"><title>1</title>
<ellipse fill="none" stroke="black" cx="270.779" cy="-337.528" rx="27" ry="18.3848"/>
<text text-anchor="middle" x="270.779" y="-333.928" font-family="Times Roman,serif" font-size="14.00">1</text>
</g>
<!-- 2 -->
<g id="node3" class="node"><title>2</title>
<ellipse fill="none" stroke="black" cx="227.975" cy="-275.692" rx="27" ry="18.3848"/>
<text text-anchor="middle" x="227.975" y="-272.092" font-family="Times Roman,serif" font-size="14.00">2</text>
</g>
<!-- 1&#45;&gt;2 -->
<g id="edge2" class="edge"><title>1&#45;&gt;2</title>
<path fill="none" stroke="black" d="M265.25,-319.214C261.611,-312.662 256.79,-305.224 251.799,-298.36"/>
<polygon fill="black" stroke="black" points="254.32,-295.894 245.462,-290.082 248.761,-300.15 254.32,-295.894"/>
</g>
<!-- 2&#45;&gt;1 -->
<g id="edge4" class="edge"><title>2&#45;&gt;1</title>
<path fill="none" stroke="black" d="M233.503,-294.007C237.142,-300.558 241.963,-307.997 246.954,-314.861"/>
<polygon fill="black" stroke="black" points="244.434,-317.326 253.292,-323.139 249.992,-313.071 244.434,-317.326"/>
</g>
<!-- 5 -->
<g id="node10" class="node"><title>5</title>
<ellipse fill="none" stroke="black" cx="177.147" cy="-213.116" rx="27" ry="18.3848"/>
<text text-anchor="middle" x="177.147" y="-209.516" font-family="Times Roman,serif" font-size="14.00">5</text>
</g>
<!-- 2&#45;&gt;5 -->
<g id="edge10" class="edge"><title>2&#45;&gt;5</title>
<path fill="none" stroke="black" d="M214.621,-259.251C209.293,-252.692 203.045,-245.001 197.195,-237.798"/>
<polygon fill="black" stroke="black" points="199.611,-235.22 190.589,-229.665 194.177,-239.634 199.611,-235.22"/>
</g>
<!-- 3 -->
<g id="node5" class="node"><title>3</title>
<ellipse fill="none" stroke="black" cx="28" cy="-259.153" rx="27" ry="18.3848"/>
<text text-anchor="middle" x="28" y="-255.553" font-family="Times Roman,serif" font-size="14.00">3</text>
</g>
<!-- 4 -->
<g id="node7" class="node"><title>4</title>
<ellipse fill="none" stroke="black" cx="99.6303" cy="-236.091" rx="27" ry="18.3848"/>
<text text-anchor="middle" x="99.6303" y="-232.491" font-family="Times Roman,serif" font-size="14.00">4</text>
</g>
<!-- 3&#45;&gt;4 -->
<g id="edge6" class="edge"><title>3&#45;&gt;4</title>
<path fill="none" stroke="black" d="M55.0361,-257.247C60.0333,-255.913 65.2722,-254.307 70.3323,-252.566"/>
<polygon fill="black" stroke="black" points="71.5705,-255.839 79.7319,-249.084 69.1388,-249.275 71.5705,-255.839"/>
</g>
<!-- 4&#45;&gt;3 -->
<g id="edge8" class="edge"><title>4&#45;&gt;3</title>
<path fill="none" stroke="black" d="M72.5942,-237.997C67.5971,-239.331 62.3581,-240.936 57.298,-242.678"/>
<polygon fill="black" stroke="black" points="56.0598,-239.404 47.8984,-246.16 58.4915,-245.968 56.0598,-239.404"/>
</g>
<!-- 4&#45;&gt;5 -->
<g id="edge12" class="edge"><title>4&#45;&gt;5</title>
<path fill="none" stroke="black" d="M124.584,-228.695C130.255,-227.014 136.379,-225.199 142.374,-223.422"/>
<polygon fill="black" stroke="black" points="143.647,-226.696 152.241,-220.498 141.658,-219.984 143.647,-226.696"/>
</g>
<!-- 6 -->
<g id="node13" class="node"><title>6</title>
<ellipse fill="none" stroke="black" cx="200.22" cy="-135.875" rx="27" ry="18.3848"/>
<text text-anchor="middle" x="200.22" y="-132.275" font-family="Times Roman,serif" font-size="14.00">6</text>
</g>
<!-- 5&#45;&gt;6 -->
<g id="edge14" class="edge"><title>5&#45;&gt;6</title>
<path fill="none" stroke="black" d="M182.615,-194.811C185.374,-185.576 188.779,-174.175 191.858,-163.869"/>
<polygon fill="black" stroke="black" points="195.283,-164.632 194.791,-154.048 188.576,-162.628 195.283,-164.632"/>
</g>
<!-- 7 -->
<g id="node15" class="node"><title>7</title>
<ellipse fill="none" stroke="black" cx="173.526" cy="-65.4743" rx="27" ry="18.3848"/>
<text text-anchor="middle" x="173.526" y="-61.8743" font-family="Times Roman,serif" font-size="14.00">7</text>
</g>
<!-- 6&#45;&gt;7 -->
<g id="edge16" class="edge"><title>6&#45;&gt;7</title>
<path fill="none" stroke="black" d="M193.346,-117.745C190.534,-110.33 187.217,-101.582 184.109,-93.3853"/>
<polygon fill="black" stroke="black" points="187.288,-91.8969 180.47,-83.7874 180.743,-94.3787 187.288,-91.8969"/>
</g>
<!-- 8 -->
<g id="node17" class="node"><title>8</title>
<ellipse fill="none" stroke="black" cx="243.966" cy="-74.3635" rx="27" ry="18.3848"/>
<text text-anchor="middle" x="243.966" y="-70.7635" font-family="Times Roman,serif" font-size="14.00">8</text>
</g>
<!-- 7&#45;&gt;8 -->
<g id="edge18" class="edge"><title>7&#45;&gt;8</title>
<path fill="none" stroke="black" d="M200.156,-68.8349C202.523,-69.1336 204.945,-69.4393 207.376,-69.746"/>
<polygon fill="black" stroke="black" points="206.938,-73.2185 217.298,-70.9981 207.815,-66.2736 206.938,-73.2185"/>
</g>
<!-- 8&#45;&gt;6 -->
<g id="edge20" class="edge"><title>8&#45;&gt;6</title>
<path fill="none" stroke="black" d="M232.012,-91.1717C227.768,-97.1387 222.893,-103.994 218.255,-110.516"/>
<polygon fill="black" stroke="black" points="215.103,-108.909 212.159,-119.087 220.807,-112.966 215.103,-108.909"/>
</g>
<!-- 9 -->
<g id="node20" class="node"><title>9</title>
<ellipse fill="none" stroke="black" cx="294.938" cy="-19.5" rx="27" ry="18.3848"/>
<text text-anchor="middle" x="294.938" y="-15.9" font-family="Times Roman,serif" font-size="14.00">9</text>
</g>
<!-- 8&#45;&gt;9 -->
<g id="edge22" class="edge"><title>8&#45;&gt;9</title>
<path fill="none" stroke="black" d="M258.709,-58.4947C263.292,-53.5617 268.443,-48.0181 273.39,-42.6929"/>
<polygon fill="black" stroke="black" points="276.162,-44.8521 280.404,-35.1437 271.033,-40.0875 276.162,-44.8521"/>
</g>
</g>
</svg>
